<?xml version="1.0" encoding="UTF-8"?>
<svg version="1.1" xmlns="http://www.w3.org/2000/svg" width="32" height="32">
<path d="M0 0 C1.38015997 0.65591761 2.75701789 1.31904891 4.125 2 C5.15810874 19.00803097 5.15810874 19.00803097 1.375 23.4375 C-1.63181588 26.22411977 -4.54411759 28 -8.6875 28 C-12.97783369 26.65401296 -15.78072397 24.2136145 -18.875 21 C-20.52997356 17.69005287 -19.97584335 14.00877 -19.9375 10.375 C-19.93298828 9.57320312 -19.92847656 8.77140625 -19.92382812 7.9453125 C-19.91203168 5.96350994 -19.89409605 3.98174567 -19.875 2 C-12.49446267 -1.67386747 -7.84971147 -3.42355018 0 0 Z " fill="#1D2E51" transform="translate(23.875,3)"/>
<path d="M0 0 C0 0.66 0 1.32 0 2 C2.64 2 5.28 2 8 2 C8 1.34 8 0.68 8 0 C9.98 0.66 11.96 1.32 14 2 C14 4.97 14 7.94 14 11 C13.67 10.34 13.34 9.68 13 9 C7.06 9 1.12 9 -5 9 C-5 9.66 -5 10.32 -5 11 C-2.36 11 0.28 11 3 11 C3 11.66 3 12.32 3 13 C2.34 13 1.68 13 1 13 C0.34 15.97 -0.32 18.94 -1 22 C-0.34 22 0.32 22 1 22 C0.67 22.66 0.34 23.32 0 24 C-4.97297954 19.15788834 -7.30244639 16.55456491 -7.4375 9.5 C-7.47746094 8.3553125 -7.51742188 7.210625 -7.55859375 6.03125 C-7 3 -7 3 -4.59765625 1.09375 C-2 0 -2 0 0 0 Z " fill="#112B5B" transform="translate(12,4)"/>
<path d="M0 0 C1.38015997 0.65591761 2.75701789 1.31904891 4.125 2 C5.15810874 19.00803097 5.15810874 19.00803097 1.375 23.4375 C-1.63181588 26.22411977 -4.54411759 28 -8.6875 28 C-12.97783369 26.65401296 -15.78072397 24.2136145 -18.875 21 C-20.52997356 17.69005287 -19.97584335 14.00877 -19.9375 10.375 C-19.93298828 9.57320312 -19.92847656 8.77140625 -19.92382812 7.9453125 C-19.91203168 5.96350994 -19.89409605 3.98174567 -19.875 2 C-12.49446267 -1.67386747 -7.84971147 -3.42355018 0 0 Z M-18.875 4 C-20.02388049 9.00100921 -19.90073758 14.52985644 -17.91796875 19.3046875 C-15.57984951 22.76361945 -12.83360642 25.51552259 -8.875 27 C-4.35826303 25.98373418 -0.29154586 23.18425427 2.2421875 19.27734375 C3.40881219 16.26786502 3.50018177 13.65971927 3.5625 10.4375 C3.60246094 9.30183594 3.64242188 8.16617187 3.68359375 6.99609375 C3.42961291 3.81326651 3.42961291 3.81326651 0.72265625 2.09765625 C-1.71203851 0.87025558 -1.71203851 0.87025558 -3.875 1 C-3.875 1.66 -3.875 2.32 -3.875 3 C-6.515 3 -9.155 3 -11.875 3 C-11.875 2.34 -11.875 1.68 -11.875 1 C-14.96139962 1 -16.47197564 2.11801976 -18.875 4 Z " fill="#CCAD37" transform="translate(23.875,3)"/>
<path d="M0 0 C5.94 0 11.88 0 18 0 C18 0.66 18 1.32 18 2 C15.36 2 12.72 2 10 2 C10 2.66 10 3.32 10 4 C10.99 3.67 11.98 3.34 13 3 C13.33 6.3 13.66 9.6 14 13 C13.01 13 12.02 13 11 13 C11 12.34 11 11.68 11 11 C9.02 11.33 7.04 11.66 5 12 C5 9.03 5 6.06 5 3 C5.99 3.33 6.98 3.66 8 4 C8 3.34 8 2.68 8 2 C5.36 2 2.72 2 0 2 C0 1.34 0 0.68 0 0 Z " fill="#B24336" transform="translate(7,13)"/>
<path d="M0 0 C1.98 0 3.96 0 6 0 C5.67 3.3 5.34 6.6 5 10 C5.66 10 6.32 10 7 10 C6.67 10.66 6.34 11.32 6 12 C0 6 0 6 -0.0625 2.9375 C-0.041875 1.968125 -0.02125 0.99875 0 0 Z " fill="#072154" transform="translate(6,16)"/>
<path d="M0 0 C1.32 1.65 2.64 3.3 4 5 C3.01 5.33 2.02 5.66 1 6 C0.34 5.67 -0.32 5.34 -1 5 C-1 4.34 -1 3.68 -1 3 C-2.98 3.99 -4.96 4.98 -7 6 C-7 11.61 -7 17.22 -7 23 C-9 21 -9 21 -9.1953125 17.0859375 C-9.18200376 15.51550649 -9.15813602 13.94513779 -9.125 12.375 C-9.11597656 11.57320312 -9.10695313 10.77140625 -9.09765625 9.9453125 C-9.07406223 7.96341477 -9.03819065 5.98167019 -9 4 C-6.03 2.68 -3.06 1.36 0 0 Z " fill="#D0AE39" transform="translate(13,1)"/>
<path d="M0 0 C4.97306516 0.49730652 8.63799813 1.55302334 13 4 C12.67 4.66 12.34 5.32 12 6 C10.02 5.01 8.04 4.02 6 3 C6 3.66 6 4.32 6 5 C5.01 5.33 4.02 5.66 3 6 C3 5.34 3 4.68 3 4 C2.01 3.67 1.02 3.34 0 3 C0 2.01 0 1.02 0 0 Z " fill="#A28E3E" transform="translate(14,1)"/>
</svg>
